<svg id="visual" viewBox="0 0 900 600" width="900" height="600" xmlns="http://www.w3.org/2000/svg" xmlns:xlink="http://www.w3.org/1999/xlink" version="1.1"><rect width="900" height="600" fill="#001829"></rect><g><g transform="translate(133 104)"><path d="M0 -57.1L24.8 -51.4L44.6 -35.6L55.7 -12.7L55.7 12.7L44.6 35.6L24.8 51.4L0 57.1L-24.8 51.4L-44.6 35.6L-55.7 12.7L-55.7 -12.7L-44.6 -35.6L-24.8 -51.4Z" fill="#297EA6"></path></g><g transform="translate(650 208)"><path d="M0 -29L12.6 -26.1L22.7 -18.1L28.3 -6.5L28.3 6.5L22.7 18.1L12.6 26.1L0 29L-12.6 26.1L-22.7 18.1L-28.3 6.5L-28.3 -6.5L-22.7 -18.1L-12.6 -26.1Z" fill="#297EA6"></path></g><g transform="translate(765 51)"><path d="M0 -30L13 -27L23.5 -18.7L29.2 -6.7L29.2 6.7L23.5 18.7L13 27L0 30L-13 27L-23.5 18.7L-29.2 6.7L-29.2 -6.7L-23.5 -18.7L-13 -27Z" fill="#297EA6"></path></g><g transform="translate(378 92)"><path d="M0 -46L20 -41.4L36 -28.7L44.8 -10.2L44.8 10.2L36 28.7L20 41.4L0 46L-20 41.4L-36 28.7L-44.8 10.2L-44.8 -10.2L-36 -28.7L-20 -41.4Z" fill="#297EA6"></path></g><g transform="translate(203 399)"><path d="M0 -46L20 -41.4L36 -28.7L44.8 -10.2L44.8 10.2L36 28.7L20 41.4L0 46L-20 41.4L-36 28.7L-44.8 10.2L-44.8 -10.2L-36 -28.7L-20 -41.4Z" fill="#297EA6"></path></g><g transform="translate(304 579)"><path d="M0 -40L17.4 -36L31.3 -24.9L39 -8.9L39 8.9L31.3 24.9L17.4 36L0 40L-17.4 36L-31.3 24.9L-39 8.9L-39 -8.9L-31.3 -24.9L-17.4 -36Z" fill="#297EA6"></path></g><g transform="translate(899 318)"><path d="M0 -32L13.9 -28.8L25 -20L31.2 -7.1L31.2 7.1L25 20L13.9 28.8L0 32L-13.9 28.8L-25 20L-31.2 7.1L-31.2 -7.1L-25 -20L-13.9 -28.8Z" fill="#297EA6"></path></g><g transform="translate(543 381)"><path d="M0 -37L16.1 -33.3L28.9 -23.1L36.1 -8.2L36.1 8.2L28.9 23.1L16.1 33.3L0 37L-16.1 33.3L-28.9 23.1L-36.1 8.2L-36.1 -8.2L-28.9 -23.1L-16.1 -33.3Z" fill="#297EA6"></path></g><g transform="translate(401 482)"><path d="M0 -32L13.9 -28.8L25 -20L31.2 -7.1L31.2 7.1L25 20L13.9 28.8L0 32L-13.9 28.8L-25 20L-31.2 7.1L-31.2 -7.1L-25 -20L-13.9 -28.8Z" fill="#297EA6"></path></g><g transform="translate(167 260)"><path d="M0 -38L16.5 -34.2L29.7 -23.7L37 -8.5L37 8.5L29.7 23.7L16.5 34.2L0 38L-16.5 34.2L-29.7 23.7L-37 8.5L-37 -8.5L-29.7 -23.7L-16.5 -34.2Z" fill="#297EA6"></path></g><g transform="translate(17 84)"><path d="M0 -30L13 -27L23.5 -18.7L29.2 -6.7L29.2 6.7L23.5 18.7L13 27L0 30L-13 27L-23.5 18.7L-29.2 6.7L-29.2 -6.7L-23.5 -18.7L-13 -27Z" fill="#297EA6"></path></g><g transform="translate(637 507)"><path d="M0 -48L20.8 -43.2L37.5 -29.9L46.8 -10.7L46.8 10.7L37.5 29.9L20.8 43.2L0 48L-20.8 43.2L-37.5 29.9L-46.8 10.7L-46.8 -10.7L-37.5 -29.9L-20.8 -43.2Z" fill="#297EA6"></path></g><g transform="translate(757 308)"><path d="M0 -48L20.8 -43.2L37.5 -29.9L46.8 -10.7L46.8 10.7L37.5 29.9L20.8 43.2L0 48L-20.8 43.2L-37.5 29.9L-46.8 10.7L-46.8 -10.7L-37.5 -29.9L-20.8 -43.2Z" fill="#297EA6"></path></g><g transform="translate(806 557)"><path d="M0 -28L12.1 -25.2L21.9 -17.5L27.3 -6.2L27.3 6.2L21.9 17.5L12.1 25.2L0 28L-12.1 25.2L-21.9 17.5L-27.3 6.2L-27.3 -6.2L-21.9 -17.5L-12.1 -25.2Z" fill="#297EA6"></path></g><g transform="translate(310 357)"><path d="M0 -48L20.8 -43.2L37.5 -29.9L46.8 -10.7L46.8 10.7L37.5 29.9L20.8 43.2L0 48L-20.8 43.2L-37.5 29.9L-46.8 10.7L-46.8 -10.7L-37.5 -29.9L-20.8 -43.2Z" fill="#297EA6"></path></g></g></svg>