<svg id="visual" viewBox="0 0 900 600" width="900" height="600" xmlns="http://www.w3.org/2000/svg" xmlns:xlink="http://www.w3.org/1999/xlink" version="1.1"><rect x="0" y="0" width="900" height="600" fill="#002233"></rect><path d="M0 165L21.5 152.3C43 139.7 86 114.3 128.8 123.2C171.7 132 214.3 175 257.2 177.2C300 179.3 343 140.7 385.8 139.3C428.7 138 471.3 174 514.2 190.2C557 206.3 600 202.7 642.8 183.7C685.7 164.7 728.3 130.3 771.2 113.7C814 97 857 98 878.5 98.5L900 99L900 0L878.5 0C857 0 814 0 771.2 0C728.3 0 685.7 0 642.8 0C600 0 557 0 514.2 0C471.3 0 428.7 0 385.8 0C343 0 300 0 257.2 0C214.3 0 171.7 0 128.8 0C86 0 43 0 21.5 0L0 0Z" fill="#0066FF" stroke-linecap="round" stroke-linejoin="miter"></path></svg>